<svg width="29" height="29" viewBox="0 0 29 29" fill="none" xmlns="http://www.w3.org/2000/svg">
<circle cx="14.0789" cy="14.0789" r="13.6096" stroke="white" stroke-width="0.938596"/>
<g clip-path="url(#clip0_912_2079)">
<path d="M19.9343 8.79412C18.8572 8.3084 17.7028 7.94939 16.4955 7.74524C16.4847 7.74318 16.4736 7.74451 16.4636 7.74905C16.4537 7.75359 16.4454 7.76111 16.4399 7.77058C16.292 8.03034 16.1273 8.36894 16.0119 8.63644C14.7315 8.44513 13.4297 8.44513 12.1493 8.63644C12.0207 8.33998 11.8757 8.05091 11.715 7.77058C11.7095 7.761 11.7013 7.7533 11.6914 7.74852C11.6814 7.74374 11.6703 7.74211 11.6594 7.74383C10.4528 7.94798 9.29833 8.30699 8.22059 8.79342C8.21132 8.79731 8.20346 8.80394 8.19806 8.81243C6.00738 12.033 5.40691 15.174 5.70187 18.2756C5.70269 18.2832 5.70504 18.2905 5.7088 18.2972C5.71255 18.3038 5.71761 18.3097 5.72369 18.3143C7.00233 19.2452 8.42849 19.9544 9.94244 20.4121C9.953 20.4153 9.96429 20.4153 9.97483 20.412C9.98538 20.4088 9.9947 20.4024 10.0016 20.3938C10.3274 19.9581 10.616 19.4958 10.8646 19.0119C10.8681 19.0053 10.8701 18.998 10.8704 18.9906C10.8708 18.9831 10.8696 18.9757 10.8669 18.9687C10.8642 18.9618 10.86 18.9555 10.8546 18.9503C10.8492 18.9452 10.8428 18.9412 10.8358 18.9387C10.381 18.7675 9.94039 18.5608 9.51796 18.3206C9.51037 18.3163 9.50398 18.3102 9.49935 18.3027C9.49472 18.2953 9.49201 18.2869 9.49145 18.2782C9.49089 18.2694 9.49251 18.2607 9.49615 18.2528C9.4998 18.2448 9.50536 18.2379 9.51233 18.2326C9.60103 18.1672 9.68973 18.0989 9.7742 18.0306C9.7818 18.0245 9.79096 18.0206 9.80066 18.0193C9.81035 18.0181 9.8202 18.0196 9.82911 18.0236C12.5935 19.2653 15.5874 19.2653 18.3194 18.0236C18.3283 18.0193 18.3383 18.0176 18.3481 18.0188C18.358 18.0199 18.3673 18.0237 18.375 18.0299C18.4595 18.0989 18.5475 18.1672 18.6369 18.2326C18.6439 18.2378 18.6496 18.2446 18.6534 18.2525C18.6571 18.2604 18.6589 18.2691 18.6584 18.2778C18.658 18.2865 18.6555 18.295 18.651 18.3025C18.6465 18.3099 18.6402 18.3162 18.6327 18.3206C18.2117 18.5628 17.7739 18.7676 17.3142 18.938C17.3071 18.9406 17.3007 18.9446 17.2953 18.9499C17.2899 18.9551 17.2857 18.9614 17.283 18.9684C17.2803 18.9754 17.2791 18.9829 17.2795 18.9904C17.2799 18.9979 17.2819 19.0052 17.2853 19.0119C17.5387 19.4955 17.8288 19.9559 18.1477 20.3931C18.1543 20.402 18.1635 20.4087 18.1741 20.4123C18.1847 20.4158 18.1961 20.416 18.2068 20.4128C19.7233 19.9564 21.1518 19.2469 22.4319 18.3143C22.4381 18.3099 22.4434 18.3043 22.4472 18.2977C22.4511 18.2912 22.4536 18.2839 22.4544 18.2763C22.8064 14.6904 21.8645 11.5747 19.9561 8.81383C19.9514 8.80486 19.9437 8.79787 19.9343 8.79412ZM11.2778 16.3869C10.4458 16.3869 9.75942 15.6344 9.75942 14.7115C9.75942 13.7879 10.4324 13.0361 11.2778 13.0361C12.1296 13.0361 12.8096 13.7943 12.7962 14.7115C12.7962 15.6351 12.1233 16.3869 11.2778 16.3869V16.3869ZM16.8918 16.3869C16.059 16.3869 15.3734 15.6344 15.3734 14.7115C15.3734 13.7879 16.0457 13.0361 16.8918 13.0361C17.7436 13.0361 18.4236 13.7943 18.4102 14.7115C18.4102 15.6351 17.7443 16.3869 16.8918 16.3869V16.3869Z" fill="white"/>
</g>
<defs>
<clipPath id="clip0_912_2079">
<rect width="16.8947" height="16.8947" fill="white" transform="translate(5.63184 5.63184)"/>
</clipPath>
</defs>
</svg>
