<svg width="170" height="165" viewBox="0 0 170 165" fill="none" xmlns="http://www.w3.org/2000/svg">
<path d="M68.5745 1.25276C90.4285 -2.38957 108.672 2.7704 115.062 5.80567C92.4414 10.79 73.6865 36.1584 67.1367 48.2195C60.2354 50.3282 53.7176 56.4467 51.3213 59.2424L44.1325 68.1086L34.5475 77.454C29.5632 82.0548 31.5122 85.6013 33.1097 86.7994V93.7486L39.34 98.7808H42.9344C71.8813 98.2057 75.923 109.564 74.3255 115.315C67.616 135.252 41.8161 146.307 29.7549 149.342C14.9939 137.648 6.83064 118.909 4.59414 111.002C-6.90795 80.5212 5.87215 49.8969 13.7 38.3948C29.6112 13.6653 56.9127 3.32949 68.5745 1.25276Z" fill="#FF7D01"/>
<path d="M99.4863 25.6946C117.89 5.37424 143.258 8.44146 153.642 12.5151C140.223 11.7483 134.152 13.9529 132.794 15.151C171.902 41.7975 172.573 84.5629 168.02 102.615C156.326 147.09 125.286 162.681 111.228 164.918C122.347 134.054 111.388 103.334 104.518 91.8316C100.493 76.6872 94.0548 64.1148 91.339 59.7216C96.7066 58.5714 103.64 53.8108 106.436 51.5743L107.154 50.6158L83.9106 49.8969C82.2332 53.3316 79.8369 58.0921 83.671 49.6573C87.505 41.2224 95.812 30.1676 99.4863 25.6946Z" fill="#FF7D01"/>
<path d="M68.5745 1.25276C90.4285 -2.38957 108.672 2.7704 115.062 5.80567C92.4414 10.79 73.6865 36.1584 67.1367 48.2195C60.2355 50.3282 53.7176 56.4467 51.3213 59.2424L44.1325 68.1086L34.5475 77.454C29.5632 82.0548 31.5122 85.6013 33.1097 86.7994V93.7486L39.34 98.7808H42.9344C71.8813 98.2057 75.923 109.564 74.3255 115.315C67.616 135.252 41.8161 146.307 29.7549 149.342C14.9939 137.648 6.83064 118.909 4.59414 111.002C-6.90795 80.5212 5.87215 49.8969 13.7 38.3948C29.6112 13.6653 56.9127 3.32949 68.5745 1.25276Z" fill="white"/>
</svg>
