<svg width="29" height="29" viewBox="0 0 29 29" fill="none" xmlns="http://www.w3.org/2000/svg">
<circle cx="14.0789" cy="14.0789" r="13.6096" stroke="white" stroke-width="0.938596"/>
<path d="M14.0778 11.8801C12.8668 11.8801 11.8785 12.8684 11.8785 14.0794C11.8785 15.2904 12.8668 16.2787 14.0778 16.2787C15.2888 16.2787 16.2771 15.2904 16.2771 14.0794C16.2771 12.8684 15.2888 11.8801 14.0778 11.8801ZM20.674 14.0794C20.674 13.1687 20.6822 12.2662 20.6311 11.3571C20.5799 10.3012 20.3391 9.36407 19.5669 8.59193C18.7931 7.81814 17.8576 7.57891 16.8017 7.52776C15.891 7.47662 14.9885 7.48487 14.0794 7.48487C13.1687 7.48487 12.2662 7.47662 11.3571 7.52776C10.3012 7.57891 9.36408 7.81979 8.59193 8.59193C7.81814 9.36572 7.57891 10.3012 7.52776 11.3571C7.47662 12.2679 7.48487 13.1703 7.48487 14.0794C7.48487 14.9885 7.47662 15.8926 7.52776 16.8017C7.57891 17.8576 7.81979 18.7948 8.59193 19.5669C9.36573 20.3407 10.3012 20.5799 11.3571 20.6311C12.2679 20.6822 13.1703 20.674 14.0794 20.674C14.9902 20.674 15.8926 20.6822 16.8017 20.6311C17.8576 20.5799 18.7948 20.3391 19.5669 19.5669C20.3407 18.7931 20.5799 17.8576 20.6311 16.8017C20.6839 15.8926 20.674 14.9902 20.674 14.0794V14.0794ZM14.0778 17.4633C12.2052 17.4633 10.6939 15.952 10.6939 14.0794C10.6939 12.2068 12.2052 10.6955 14.0778 10.6955C15.9504 10.6955 17.4617 12.2068 17.4617 14.0794C17.4617 15.952 15.9504 17.4633 14.0778 17.4633ZM17.6003 11.3472C17.1631 11.3472 16.81 10.9942 16.81 10.5569C16.81 10.1197 17.1631 9.76664 17.6003 9.76664C18.0375 9.76664 18.3906 10.1197 18.3906 10.5569C18.3907 10.6608 18.3703 10.7636 18.3307 10.8595C18.291 10.9555 18.2328 11.0426 18.1594 11.116C18.086 11.1895 17.9988 11.2477 17.9029 11.2873C17.8069 11.327 17.7041 11.3474 17.6003 11.3472V11.3472Z" fill="white"/>
</svg>
