<svg width="64" height="65" viewBox="0 0 64 65" fill="none" xmlns="http://www.w3.org/2000/svg">
<mask id="path-1-inside-1_912_2088" fill="white">
<path d="M5.94 53.0937H0.06V55.0137H1.8V60.5938H4.2V55.0137H5.94V53.0937ZM6.59609 60.5938V54.5937H7.79609L8.45609 55.2637C8.93609 54.8237 9.52943 54.5404 10.2361 54.4137L10.3761 56.6837C10.2828 56.6837 10.1694 56.6971 10.0361 56.7237C9.90276 56.7504 9.76609 56.7837 9.62609 56.8237C9.49276 56.8637 9.36943 56.9137 9.25609 56.9737C9.14276 57.0271 9.05609 57.0904 8.99609 57.1637V60.5938H6.59609ZM13.498 60.5938H11.098V54.8937L13.498 54.5937V60.5938ZM10.968 53.4637C10.968 53.2837 10.988 53.1337 11.028 53.0137C11.068 52.8871 11.138 52.7871 11.238 52.7137C11.338 52.6337 11.4747 52.5771 11.648 52.5437C11.8214 52.5104 12.0414 52.4937 12.308 52.4937C12.5747 52.4937 12.7914 52.5104 12.958 52.5437C13.1314 52.5771 13.268 52.6337 13.368 52.7137C13.468 52.7871 13.538 52.8871 13.578 53.0137C13.618 53.1337 13.638 53.2837 13.638 53.4637C13.638 53.6437 13.618 53.7937 13.578 53.9137C13.538 54.0337 13.468 54.1337 13.368 54.2137C13.268 54.2871 13.1314 54.3404 12.958 54.3737C12.7914 54.4004 12.5747 54.4137 12.308 54.4137C12.1147 54.4137 11.9347 54.4071 11.768 54.3937C11.608 54.3804 11.468 54.3437 11.348 54.2837C11.228 54.2171 11.1347 54.1204 11.068 53.9937C11.0014 53.8671 10.968 53.6904 10.968 53.4637ZM14.7016 62.5738V54.5937H15.9016L16.3416 55.1937C16.6949 54.6737 17.3482 54.4137 18.3016 54.4137C18.7816 54.4137 19.1849 54.5004 19.5116 54.6737C19.8382 54.8471 20.1016 55.0804 20.3016 55.3737C20.5082 55.6604 20.6549 55.9971 20.7416 56.3837C20.8349 56.7704 20.8816 57.1737 20.8816 57.5937C20.8816 58.0004 20.8416 58.3837 20.7616 58.7437C20.6816 59.1037 20.5482 59.4237 20.3616 59.7037C20.1749 59.9771 19.9282 60.1937 19.6216 60.3537C19.3149 60.5137 18.9349 60.5938 18.4816 60.5938H17.1016V62.3938L14.7016 62.5738ZM17.1016 56.6137V59.0237H17.4716C17.7649 59.0237 17.9749 58.9937 18.1016 58.9337C18.2349 58.8737 18.3016 58.7337 18.3016 58.5137V56.1637H17.9316C17.7582 56.1637 17.6182 56.1704 17.5116 56.1837C17.4049 56.1971 17.3116 56.2404 17.2316 56.3137C17.1516 56.3804 17.1082 56.4804 17.1016 56.6137ZM21.8402 62.5738V54.5937H23.0402L23.4802 55.1937C23.8336 54.6737 24.4869 54.4137 25.4402 54.4137C25.9202 54.4137 26.3236 54.5004 26.6502 54.6737C26.9769 54.8471 27.2402 55.0804 27.4402 55.3737C27.6469 55.6604 27.7936 55.9971 27.8802 56.3837C27.9736 56.7704 28.0202 57.1737 28.0202 57.5937C28.0202 58.0004 27.9802 58.3837 27.9002 58.7437C27.8202 59.1037 27.6869 59.4237 27.5002 59.7037C27.3136 59.9771 27.0669 60.1937 26.7602 60.3537C26.4536 60.5137 26.0736 60.5938 25.6202 60.5938H24.2402V62.3938L21.8402 62.5738ZM24.2402 56.6137V59.0237H24.6102C24.9036 59.0237 25.1136 58.9937 25.2402 58.9337C25.3736 58.8737 25.4402 58.7337 25.4402 58.5137V56.1637H25.0702C24.8969 56.1637 24.7569 56.1704 24.6502 56.1837C24.5436 56.1971 24.4502 56.2404 24.3702 56.3137C24.2902 56.3804 24.2469 56.4804 24.2402 56.6137ZM30.9789 59.9737H29.7189L28.3789 54.5937H30.7789L31.4389 58.4937H31.5589L32.2189 54.5937H34.6189L33.1189 60.5938C33.0122 60.9871 32.8889 61.3104 32.7489 61.5638C32.6156 61.8171 32.4589 62.0171 32.2789 62.1638C32.0989 62.3171 31.8889 62.4238 31.6489 62.4838C31.4156 62.5438 31.1422 62.5738 30.8289 62.5738H28.4989V61.0138L29.6289 60.7938C30.2089 60.6604 30.5856 60.5171 30.7589 60.3637C30.8056 60.3237 30.8489 60.2771 30.8889 60.2237C30.9289 60.1704 30.9656 60.1104 30.9989 60.0437L30.9789 59.9737ZM42.0572 58.3837V58.0637H41.4472V56.2237H44.3372V60.2337C43.3905 60.5938 42.4072 60.7738 41.3872 60.7738C40.6872 60.7738 40.1072 60.6904 39.6472 60.5237C39.1939 60.3571 38.8339 60.1104 38.5672 59.7837C38.3005 59.4504 38.1139 59.0404 38.0072 58.5537C37.9072 58.0604 37.8572 57.4871 37.8572 56.8337C37.8572 56.1404 37.9205 55.5471 38.0472 55.0537C38.1739 54.5537 38.3839 54.1471 38.6772 53.8337C38.9705 53.5137 39.3605 53.2804 39.8472 53.1337C40.3339 52.9871 40.9372 52.9137 41.6572 52.9137C41.8172 52.9137 42.0039 52.9237 42.2172 52.9437C42.4372 52.9571 42.6572 52.9804 42.8772 53.0137C43.0972 53.0404 43.3039 53.0737 43.4972 53.1137C43.6972 53.1471 43.8572 53.1837 43.9772 53.2237L43.6172 55.0637C43.2905 55.0104 42.9805 54.9704 42.6872 54.9438C42.3939 54.9104 42.1205 54.8937 41.8672 54.8937C41.3405 54.8937 40.9705 54.9337 40.7572 55.0137C40.5439 55.0937 40.4372 55.2537 40.4372 55.4937V58.8937H41.2272C41.5205 58.8937 41.7305 58.8637 41.8572 58.8037C41.9905 58.7371 42.0572 58.5971 42.0572 58.3837ZM45.1745 57.5937C45.1745 56.5204 45.4245 55.7237 45.9245 55.2037C46.4245 54.6771 47.2345 54.4137 48.3545 54.4137C49.4745 54.4137 50.2845 54.6771 50.7845 55.2037C51.2845 55.7237 51.5345 56.5204 51.5345 57.5937C51.5345 58.6671 51.2845 59.4671 50.7845 59.9937C50.2845 60.5137 49.4745 60.7738 48.3545 60.7738C47.2611 60.7738 46.4578 60.5171 45.9445 60.0037C45.4311 59.4904 45.1745 58.6871 45.1745 57.5937ZM47.7545 56.6737V59.0237H48.1245C48.4178 59.0237 48.6278 58.9937 48.7545 58.9337C48.8878 58.8737 48.9545 58.7337 48.9545 58.5137V56.1637H48.5845C48.2911 56.1637 48.0778 56.1937 47.9445 56.2537C47.8178 56.3137 47.7545 56.4537 47.7545 56.6737ZM55.3345 54.4137C57.2545 54.4137 58.2145 55.0737 58.2145 56.3937V60.5938H57.0145L56.3345 59.9137C56.2145 60.0471 56.0712 60.1671 55.9045 60.2737C55.7445 60.3804 55.5712 60.4704 55.3845 60.5437C55.1979 60.6171 55.0079 60.6738 54.8145 60.7138C54.6212 60.7538 54.4345 60.7738 54.2545 60.7738C53.9145 60.7738 53.6079 60.7371 53.3345 60.6638C53.0679 60.5971 52.8412 60.4871 52.6545 60.3337C52.4679 60.1804 52.3245 59.9771 52.2245 59.7237C52.1245 59.4704 52.0745 59.1604 52.0745 58.7937C52.0745 57.3537 53.1612 56.6337 55.3345 56.6337H55.8145V56.2037C55.6879 56.1971 55.5712 56.1904 55.4645 56.1837C55.3645 56.1771 55.2712 56.1737 55.1845 56.1737C54.2845 56.1737 53.5079 56.2837 52.8545 56.5037L52.5645 54.7837C53.3645 54.5371 54.2879 54.4137 55.3345 54.4137ZM54.4945 58.5337V59.0237H54.9945C55.3412 59.0237 55.5679 58.9837 55.6745 58.9037C55.7679 58.8171 55.8145 58.7137 55.8145 58.5937V58.0238H55.3245C55.0379 58.0238 54.8279 58.0537 54.6945 58.1137C54.5612 58.1737 54.4945 58.3137 54.4945 58.5337ZM59.5314 56.1437H58.9314V54.5937H59.5314V53.6337L61.9314 53.0337V54.5937H62.7614V56.1437H61.9314V58.8737C62.0314 58.8937 62.1414 58.9137 62.2614 58.9337C62.3814 58.9471 62.5081 58.9571 62.6414 58.9637L62.5314 60.7238C61.4381 60.7238 60.7247 60.6638 60.3914 60.5437C60.1114 60.4437 59.8981 60.3171 59.7514 60.1637C59.6047 60.0037 59.5314 59.7704 59.5314 59.4637V56.1437Z"/>
</mask>
<path d="M5.94 53.0937H0.06V55.0137H1.8V60.5938H4.2V55.0137H5.94V53.0937ZM6.59609 60.5938V54.5937H7.79609L8.45609 55.2637C8.93609 54.8237 9.52943 54.5404 10.2361 54.4137L10.3761 56.6837C10.2828 56.6837 10.1694 56.6971 10.0361 56.7237C9.90276 56.7504 9.76609 56.7837 9.62609 56.8237C9.49276 56.8637 9.36943 56.9137 9.25609 56.9737C9.14276 57.0271 9.05609 57.0904 8.99609 57.1637V60.5938H6.59609ZM13.498 60.5938H11.098V54.8937L13.498 54.5937V60.5938ZM10.968 53.4637C10.968 53.2837 10.988 53.1337 11.028 53.0137C11.068 52.8871 11.138 52.7871 11.238 52.7137C11.338 52.6337 11.4747 52.5771 11.648 52.5437C11.8214 52.5104 12.0414 52.4937 12.308 52.4937C12.5747 52.4937 12.7914 52.5104 12.958 52.5437C13.1314 52.5771 13.268 52.6337 13.368 52.7137C13.468 52.7871 13.538 52.8871 13.578 53.0137C13.618 53.1337 13.638 53.2837 13.638 53.4637C13.638 53.6437 13.618 53.7937 13.578 53.9137C13.538 54.0337 13.468 54.1337 13.368 54.2137C13.268 54.2871 13.1314 54.3404 12.958 54.3737C12.7914 54.4004 12.5747 54.4137 12.308 54.4137C12.1147 54.4137 11.9347 54.4071 11.768 54.3937C11.608 54.3804 11.468 54.3437 11.348 54.2837C11.228 54.2171 11.1347 54.1204 11.068 53.9937C11.0014 53.8671 10.968 53.6904 10.968 53.4637ZM14.7016 62.5738V54.5937H15.9016L16.3416 55.1937C16.6949 54.6737 17.3482 54.4137 18.3016 54.4137C18.7816 54.4137 19.1849 54.5004 19.5116 54.6737C19.8382 54.8471 20.1016 55.0804 20.3016 55.3737C20.5082 55.6604 20.6549 55.9971 20.7416 56.3837C20.8349 56.7704 20.8816 57.1737 20.8816 57.5937C20.8816 58.0004 20.8416 58.3837 20.7616 58.7437C20.6816 59.1037 20.5482 59.4237 20.3616 59.7037C20.1749 59.9771 19.9282 60.1937 19.6216 60.3537C19.3149 60.5137 18.9349 60.5938 18.4816 60.5938H17.1016V62.3938L14.7016 62.5738ZM17.1016 56.6137V59.0237H17.4716C17.7649 59.0237 17.9749 58.9937 18.1016 58.9337C18.2349 58.8737 18.3016 58.7337 18.3016 58.5137V56.1637H17.9316C17.7582 56.1637 17.6182 56.1704 17.5116 56.1837C17.4049 56.1971 17.3116 56.2404 17.2316 56.3137C17.1516 56.3804 17.1082 56.4804 17.1016 56.6137ZM21.8402 62.5738V54.5937H23.0402L23.4802 55.1937C23.8336 54.6737 24.4869 54.4137 25.4402 54.4137C25.9202 54.4137 26.3236 54.5004 26.6502 54.6737C26.9769 54.8471 27.2402 55.0804 27.4402 55.3737C27.6469 55.6604 27.7936 55.9971 27.8802 56.3837C27.9736 56.7704 28.0202 57.1737 28.0202 57.5937C28.0202 58.0004 27.9802 58.3837 27.9002 58.7437C27.8202 59.1037 27.6869 59.4237 27.5002 59.7037C27.3136 59.9771 27.0669 60.1937 26.7602 60.3537C26.4536 60.5137 26.0736 60.5938 25.6202 60.5938H24.2402V62.3938L21.8402 62.5738ZM24.2402 56.6137V59.0237H24.6102C24.9036 59.0237 25.1136 58.9937 25.2402 58.9337C25.3736 58.8737 25.4402 58.7337 25.4402 58.5137V56.1637H25.0702C24.8969 56.1637 24.7569 56.1704 24.6502 56.1837C24.5436 56.1971 24.4502 56.2404 24.3702 56.3137C24.2902 56.3804 24.2469 56.4804 24.2402 56.6137ZM30.9789 59.9737H29.7189L28.3789 54.5937H30.7789L31.4389 58.4937H31.5589L32.2189 54.5937H34.6189L33.1189 60.5938C33.0122 60.9871 32.8889 61.3104 32.7489 61.5638C32.6156 61.8171 32.4589 62.0171 32.2789 62.1638C32.0989 62.3171 31.8889 62.4238 31.6489 62.4838C31.4156 62.5438 31.1422 62.5738 30.8289 62.5738H28.4989V61.0138L29.6289 60.7938C30.2089 60.6604 30.5856 60.5171 30.7589 60.3637C30.8056 60.3237 30.8489 60.2771 30.8889 60.2237C30.9289 60.1704 30.9656 60.1104 30.9989 60.0437L30.9789 59.9737ZM42.0572 58.3837V58.0637H41.4472V56.2237H44.3372V60.2337C43.3905 60.5938 42.4072 60.7738 41.3872 60.7738C40.6872 60.7738 40.1072 60.6904 39.6472 60.5237C39.1939 60.3571 38.8339 60.1104 38.5672 59.7837C38.3005 59.4504 38.1139 59.0404 38.0072 58.5537C37.9072 58.0604 37.8572 57.4871 37.8572 56.8337C37.8572 56.1404 37.9205 55.5471 38.0472 55.0537C38.1739 54.5537 38.3839 54.1471 38.6772 53.8337C38.9705 53.5137 39.3605 53.2804 39.8472 53.1337C40.3339 52.9871 40.9372 52.9137 41.6572 52.9137C41.8172 52.9137 42.0039 52.9237 42.2172 52.9437C42.4372 52.9571 42.6572 52.9804 42.8772 53.0137C43.0972 53.0404 43.3039 53.0737 43.4972 53.1137C43.6972 53.1471 43.8572 53.1837 43.9772 53.2237L43.6172 55.0637C43.2905 55.0104 42.9805 54.9704 42.6872 54.9438C42.3939 54.9104 42.1205 54.8937 41.8672 54.8937C41.3405 54.8937 40.9705 54.9337 40.7572 55.0137C40.5439 55.0937 40.4372 55.2537 40.4372 55.4937V58.8937H41.2272C41.5205 58.8937 41.7305 58.8637 41.8572 58.8037C41.9905 58.7371 42.0572 58.5971 42.0572 58.3837ZM45.1745 57.5937C45.1745 56.5204 45.4245 55.7237 45.9245 55.2037C46.4245 54.6771 47.2345 54.4137 48.3545 54.4137C49.4745 54.4137 50.2845 54.6771 50.7845 55.2037C51.2845 55.7237 51.5345 56.5204 51.5345 57.5937C51.5345 58.6671 51.2845 59.4671 50.7845 59.9937C50.2845 60.5137 49.4745 60.7738 48.3545 60.7738C47.2611 60.7738 46.4578 60.5171 45.9445 60.0037C45.4311 59.4904 45.1745 58.6871 45.1745 57.5937ZM47.7545 56.6737V59.0237H48.1245C48.4178 59.0237 48.6278 58.9937 48.7545 58.9337C48.8878 58.8737 48.9545 58.7337 48.9545 58.5137V56.1637H48.5845C48.2911 56.1637 48.0778 56.1937 47.9445 56.2537C47.8178 56.3137 47.7545 56.4537 47.7545 56.6737ZM55.3345 54.4137C57.2545 54.4137 58.2145 55.0737 58.2145 56.3937V60.5938H57.0145L56.3345 59.9137C56.2145 60.0471 56.0712 60.1671 55.9045 60.2737C55.7445 60.3804 55.5712 60.4704 55.3845 60.5437C55.1979 60.6171 55.0079 60.6738 54.8145 60.7138C54.6212 60.7538 54.4345 60.7738 54.2545 60.7738C53.9145 60.7738 53.6079 60.7371 53.3345 60.6638C53.0679 60.5971 52.8412 60.4871 52.6545 60.3337C52.4679 60.1804 52.3245 59.9771 52.2245 59.7237C52.1245 59.4704 52.0745 59.1604 52.0745 58.7937C52.0745 57.3537 53.1612 56.6337 55.3345 56.6337H55.8145V56.2037C55.6879 56.1971 55.5712 56.1904 55.4645 56.1837C55.3645 56.1771 55.2712 56.1737 55.1845 56.1737C54.2845 56.1737 53.5079 56.2837 52.8545 56.5037L52.5645 54.7837C53.3645 54.5371 54.2879 54.4137 55.3345 54.4137ZM54.4945 58.5337V59.0237H54.9945C55.3412 59.0237 55.5679 58.9837 55.6745 58.9037C55.7679 58.8171 55.8145 58.7137 55.8145 58.5937V58.0238H55.3245C55.0379 58.0238 54.8279 58.0537 54.6945 58.1137C54.5612 58.1737 54.4945 58.3137 54.4945 58.5337ZM59.5314 56.1437H58.9314V54.5937H59.5314V53.6337L61.9314 53.0337V54.5937H62.7614V56.1437H61.9314V58.8737C62.0314 58.8937 62.1414 58.9137 62.2614 58.9337C62.3814 58.9471 62.5081 58.9571 62.6414 58.9637L62.5314 60.7238C61.4381 60.7238 60.7247 60.6638 60.3914 60.5437C60.1114 60.4437 59.8981 60.3171 59.7514 60.1637C59.6047 60.0037 59.5314 59.7704 59.5314 59.4637V56.1437Z" fill="white"/>
<path d="M5.94 53.0937H6.24V52.7937H5.94V53.0937ZM0.06 53.0937V52.7937H-0.24V53.0937H0.06ZM0.06 55.0137H-0.24V55.3137H0.06V55.0137ZM1.8 55.0137H2.1V54.7137H1.8V55.0137ZM1.8 60.5938H1.5V60.8938H1.8V60.5938ZM4.2 60.5938V60.8938H4.5V60.5938H4.2ZM4.2 55.0137V54.7137H3.9V55.0137H4.2ZM5.94 55.0137V55.3137H6.24V55.0137H5.94ZM5.94 52.7937H0.06V53.3937H5.94V52.7937ZM-0.24 53.0937V55.0137H0.36V53.0937H-0.24ZM0.06 55.3137H1.8V54.7137H0.06V55.3137ZM1.5 55.0137V60.5938H2.1V55.0137H1.5ZM1.8 60.8938H4.2V60.2937H1.8V60.8938ZM4.5 60.5938V55.0137H3.9V60.5938H4.5ZM4.2 55.3137H5.94V54.7137H4.2V55.3137ZM6.24 55.0137V53.0937H5.64V55.0137H6.24ZM6.59609 60.5938H6.29609V60.8938H6.59609V60.5938ZM6.59609 54.5937V54.2937H6.29609V54.5937H6.59609ZM7.79609 54.5937L8.00982 54.3832L7.92168 54.2937H7.79609V54.5937ZM8.45609 55.2637L8.24237 55.4743L8.44547 55.6805L8.65881 55.4849L8.45609 55.2637ZM10.2361 54.4137L10.5355 54.3953L10.5148 54.059L10.1832 54.1185L10.2361 54.4137ZM10.3761 56.6837V56.9837H10.6952L10.6755 56.6653L10.3761 56.6837ZM9.62609 56.8238L9.54367 56.5353L9.53989 56.5364L9.62609 56.8238ZM9.25609 56.9737L9.38398 57.2455L9.39646 57.2389L9.25609 56.9737ZM8.99609 57.1637L8.76391 56.9738L8.69609 57.0567V57.1637H8.99609ZM8.99609 60.5938V60.8938H9.29609V60.5938H8.99609ZM6.89609 60.5938V54.5937H6.29609V60.5938H6.89609ZM6.59609 54.8937H7.79609V54.2937H6.59609V54.8937ZM7.58237 54.8043L8.24237 55.4743L8.66982 55.0532L8.00982 54.3832L7.58237 54.8043ZM8.65881 55.4849C9.09268 55.0872 9.63236 54.8267 10.289 54.709L10.1832 54.1185C9.42649 54.2541 8.77951 54.5603 8.25338 55.0426L8.65881 55.4849ZM9.93666 54.4322L10.0767 56.7022L10.6755 56.6653L10.5355 54.3953L9.93666 54.4322ZM10.3761 56.3837C10.2563 56.3837 10.122 56.4006 9.97726 56.4296L10.0949 57.0179C10.2168 56.9935 10.3092 56.9837 10.3761 56.9837V56.3837ZM9.97726 56.4296C9.83546 56.4579 9.69092 56.4932 9.54368 56.5353L9.70851 57.1122C9.84127 57.0743 9.97006 57.0429 10.0949 57.0179L9.97726 56.4296ZM9.53989 56.5364C9.3894 56.5815 9.24775 56.6387 9.11573 56.7086L9.39646 57.2389C9.49111 57.1888 9.59612 57.146 9.7123 57.1111L9.53989 56.5364ZM9.12835 56.7023C8.98702 56.7688 8.8598 56.8566 8.76391 56.9738L9.22828 57.3537C9.25239 57.3243 9.2985 57.2854 9.38383 57.2452L9.12835 56.7023ZM8.69609 57.1637V60.5938H9.29609V57.1637H8.69609ZM8.99609 60.2937H6.59609V60.8938H8.99609V60.2937ZM13.498 60.5938V60.8938H13.798V60.5938H13.498ZM11.098 60.5938H10.798V60.8938H11.098V60.5938ZM11.098 54.8937L11.0608 54.5961L10.798 54.6289V54.8937H11.098ZM13.498 54.5937H13.798V54.2539L13.4608 54.2961L13.498 54.5937ZM11.028 53.0137L11.3127 53.1086L11.3141 53.1041L11.028 53.0137ZM11.238 52.7137L11.4156 52.9559L11.4255 52.948L11.238 52.7137ZM11.648 52.5437L11.5914 52.2491V52.2491L11.648 52.5437ZM12.958 52.5437L12.8992 52.8379L12.9014 52.8384L12.958 52.5437ZM13.368 52.7137L13.1805 52.9482L13.1906 52.9557L13.368 52.7137ZM13.578 53.0137L13.2919 53.1041L13.2934 53.1086L13.578 53.0137ZM13.578 53.9137L13.8627 54.0086V54.0086L13.578 53.9137ZM13.368 54.2137L13.5456 54.4559L13.5555 54.448L13.368 54.2137ZM12.958 54.3737L13.0055 54.6701L13.0147 54.6684L12.958 54.3737ZM11.768 54.3937L11.7431 54.6927L11.7441 54.6928L11.768 54.3937ZM11.348 54.2837L11.2022 54.5462L11.2139 54.5521L11.348 54.2837ZM11.068 53.9937L11.3335 53.854L11.068 53.9937ZM13.498 60.2937H11.098V60.8938H13.498V60.2937ZM11.398 60.5938V54.8937H10.798V60.5938H11.398ZM11.1353 55.1914L13.5353 54.8914L13.4608 54.2961L11.0608 54.5961L11.1353 55.1914ZM13.198 54.5937V60.5938H13.798V54.5937H13.198ZM11.268 53.4637C11.268 53.3035 11.2862 53.1881 11.3127 53.1086L10.7434 52.9189C10.6899 53.0794 10.668 53.264 10.668 53.4637H11.268ZM11.3141 53.1041C11.3364 53.0336 11.3706 52.9886 11.4155 52.9557L11.0606 52.4718C10.9055 52.5856 10.7997 52.7405 10.742 52.9234L11.3141 53.1041ZM11.4255 52.948C11.4758 52.9078 11.562 52.8658 11.7047 52.8384L11.5914 52.2491C11.3874 52.2884 11.2003 52.3597 11.0506 52.4795L11.4255 52.948ZM11.7047 52.8384C11.8525 52.8099 12.0518 52.7937 12.308 52.7937V52.1937C12.0309 52.1937 11.7903 52.2109 11.5914 52.2491L11.7047 52.8384ZM12.308 52.7937C12.5647 52.7937 12.7596 52.81 12.8992 52.8379L13.0169 52.2496C12.8232 52.2108 12.5847 52.1937 12.308 52.1937V52.7937ZM12.9014 52.8384C13.0441 52.8658 13.1303 52.9078 13.1806 52.948L13.5555 52.4795C13.4058 52.3597 13.2187 52.2884 13.0147 52.2491L12.9014 52.8384ZM13.1906 52.9557C13.2355 52.9886 13.2697 53.0336 13.292 53.1041L13.8641 52.9234C13.8064 52.7405 13.7006 52.5856 13.5455 52.4718L13.1906 52.9557ZM13.2934 53.1086C13.3199 53.1881 13.338 53.3035 13.338 53.4637H13.938C13.938 53.264 13.9162 53.0794 13.8627 52.9189L13.2934 53.1086ZM13.338 53.4637C13.338 53.624 13.3199 53.7394 13.2934 53.8189L13.8627 54.0086C13.9162 53.8481 13.938 53.6635 13.938 53.4637H13.338ZM13.2934 53.8189C13.272 53.8833 13.2361 53.9351 13.1806 53.9795L13.5555 54.448C13.7 54.3324 13.8041 54.1842 13.8627 54.0086L13.2934 53.8189ZM13.1906 53.9718C13.1383 54.0102 13.0483 54.0509 12.9014 54.0791L13.0147 54.6684C13.2145 54.6299 13.3977 54.564 13.5455 54.4557L13.1906 53.9718ZM12.9106 54.0775C12.7659 54.1007 12.5668 54.1137 12.308 54.1137V54.7137C12.5826 54.7137 12.8168 54.7002 13.0054 54.67L12.9106 54.0775ZM12.308 54.1137C12.1215 54.1137 11.9496 54.1073 11.792 54.0947L11.7441 54.6928C11.9199 54.7069 12.1079 54.7137 12.308 54.7137V54.1137ZM11.793 54.0948C11.6637 54.084 11.5621 54.0554 11.4822 54.0154L11.2139 54.5521C11.374 54.6321 11.5524 54.6768 11.7431 54.6927L11.793 54.0948ZM11.4937 54.0215C11.427 53.9844 11.3742 53.9314 11.3335 53.854L10.8026 54.1335C10.8952 54.3094 11.0291 54.4498 11.2024 54.546L11.4937 54.0215ZM11.3335 53.854C11.299 53.7885 11.268 53.6673 11.268 53.4637H10.668C10.668 53.7136 10.7037 53.9457 10.8026 54.1335L11.3335 53.854ZM14.7016 62.5738H14.4016V62.8971L14.724 62.8729L14.7016 62.5738ZM14.7016 54.5937V54.2937H14.4016V54.5937H14.7016ZM15.9016 54.5937L16.1435 54.4163L16.0536 54.2937H15.9016V54.5937ZM16.3416 55.1937L16.0996 55.3712L16.3509 55.7138L16.5897 55.3624L16.3416 55.1937ZM19.5116 54.6737L19.3709 54.9388L19.3709 54.9388L19.5116 54.6737ZM20.3016 55.3737L20.0536 55.5428L20.0582 55.5492L20.3016 55.3737ZM20.7416 56.3837L20.4488 56.4494L20.4499 56.4541L20.7416 56.3837ZM20.7616 58.7438L20.4687 58.6787L20.7616 58.7438ZM20.3616 59.7037L20.6093 59.8729L20.6112 59.8702L20.3616 59.7037ZM17.1016 60.5938V60.2937H16.8016V60.5938H17.1016ZM17.1016 62.3938L17.124 62.6929L17.4016 62.6721V62.3938H17.1016ZM17.1016 56.6137L16.8019 56.5988L16.8016 56.6063V56.6137H17.1016ZM17.1016 59.0237H16.8016V59.3238H17.1016V59.0237ZM18.1016 58.9338L17.9784 58.6601L17.9731 58.6626L18.1016 58.9338ZM18.3016 56.1637H18.6016V55.8637H18.3016V56.1637ZM17.2316 56.3137L17.4236 56.5442L17.4291 56.5397L17.4343 56.5349L17.2316 56.3137ZM15.0016 62.5738V54.5937H14.4016V62.5738H15.0016ZM14.7016 54.8937H15.9016V54.2937H14.7016V54.8937ZM15.6596 54.7712L16.0996 55.3712L16.5835 55.0163L16.1435 54.4163L15.6596 54.7712ZM16.5897 55.3624C16.8625 54.9609 17.3937 54.7137 18.3016 54.7137V54.1137C17.3028 54.1137 16.5273 54.3866 16.0934 55.0251L16.5897 55.3624ZM18.3016 54.7137C18.7467 54.7137 19.0986 54.7942 19.3709 54.9388L19.6522 54.4087C19.2712 54.2066 18.8164 54.1137 18.3016 54.1137V54.7137ZM19.3709 54.9388C19.6565 55.0902 19.8823 55.2913 20.0537 55.5428L20.5494 55.2047C20.3208 54.8695 20.02 54.6039 19.6522 54.4087L19.3709 54.9388ZM20.0582 55.5492C20.2384 55.7992 20.37 56.0975 20.4488 56.4494L21.0343 56.3181C20.9398 55.8967 20.778 55.5216 20.5449 55.1983L20.0582 55.5492ZM20.4499 56.4541C20.5374 56.8165 20.5816 57.1961 20.5816 57.5938H21.1816C21.1816 57.1514 21.1324 56.7243 21.0332 56.3134L20.4499 56.4541ZM20.5816 57.5938C20.5816 57.9807 20.5435 58.3421 20.4687 58.6787L21.0544 58.8088C21.1396 58.4254 21.1816 58.0201 21.1816 57.5938H20.5816ZM20.4687 58.6787C20.396 59.006 20.2762 59.291 20.1119 59.5373L20.6112 59.8702C20.8203 59.5565 20.9672 59.2015 21.0544 58.8088L20.4687 58.6787ZM20.1138 59.5346C19.9562 59.7653 19.7478 59.9495 19.4828 60.0878L19.7603 60.6197C20.1087 60.438 20.3936 60.1889 20.6093 59.8729L20.1138 59.5346ZM19.4828 60.0878C19.2302 60.2196 18.9011 60.2937 18.4816 60.2937V60.8938C18.9687 60.8938 19.3996 60.8079 19.7603 60.6197L19.4828 60.0878ZM18.4816 60.2937H17.1016V60.8938H18.4816V60.2937ZM16.8016 60.5938V62.3938H17.4016V60.5938H16.8016ZM17.0791 62.0946L14.6791 62.2746L14.724 62.8729L17.124 62.6929L17.0791 62.0946ZM16.8016 56.6137V59.0237H17.4016V56.6137H16.8016ZM17.1016 59.3238H17.4716V58.7238H17.1016V59.3238ZM17.4716 59.3238C17.7711 59.3238 18.039 59.2953 18.23 59.2049L17.9731 58.6626C17.9108 58.6922 17.7587 58.7238 17.4716 58.7238V59.3238ZM18.2247 59.2073C18.5161 59.0762 18.6016 58.7841 18.6016 58.5138H18.0016C18.0016 58.5965 17.9886 58.6383 17.9807 58.6548C17.9773 58.6619 17.9755 58.663 17.9769 58.6616C17.9785 58.66 17.9798 58.6596 17.9785 58.6602L18.2247 59.2073ZM18.6016 58.5138V56.1637H18.0016V58.5138H18.6016ZM18.3016 55.8637H17.9316V56.4637H18.3016V55.8637ZM17.9316 55.8637C17.7523 55.8637 17.5985 55.8705 17.4744 55.8861L17.5488 56.4814C17.638 56.4703 17.7641 56.4637 17.9316 56.4637V55.8637ZM17.4744 55.8861C17.3053 55.9072 17.1543 55.9776 17.0288 56.0926L17.4343 56.5349C17.4689 56.5032 17.5045 56.487 17.5488 56.4814L17.4744 55.8861ZM17.0395 56.0833C16.8781 56.2178 16.8115 56.4068 16.8019 56.5988L17.4012 56.6287C17.4031 56.5902 17.4098 56.5685 17.4143 56.558C17.4182 56.549 17.4214 56.5461 17.4236 56.5442L17.0395 56.0833ZM21.8402 62.5738H21.5402V62.8971L21.8627 62.8729L21.8402 62.5738ZM21.8402 54.5937V54.2937H21.5402V54.5937H21.8402ZM23.0402 54.5937L23.2822 54.4163L23.1923 54.2937H23.0402V54.5937ZM23.4802 55.1937L23.2383 55.3712L23.4896 55.7138L23.7284 55.3624L23.4802 55.1937ZM26.6502 54.6737L26.5096 54.9388L26.5096 54.9388L26.6502 54.6737ZM27.4402 55.3737L27.1923 55.5428L27.1969 55.5492L27.4402 55.3737ZM27.8802 56.3837L27.5875 56.4494L27.5886 56.4541L27.8802 56.3837ZM27.9002 58.7438L27.6074 58.6787L27.9002 58.7438ZM27.5002 59.7037L27.748 59.8729L27.7498 59.8702L27.5002 59.7037ZM24.2402 60.5938V60.2937H23.9402V60.5938H24.2402ZM24.2402 62.3938L24.2627 62.6929L24.5402 62.6721V62.3938H24.2402ZM24.2402 56.6137L23.9406 56.5988L23.9402 56.6063V56.6137H24.2402ZM24.2402 59.0237H23.9402V59.3238H24.2402V59.0237ZM25.2402 58.9338L25.1171 58.6601L25.1118 58.6626L25.2402 58.9338ZM25.4402 56.1637H25.7402V55.8637H25.4402V56.1637ZM24.3702 56.3137L24.5623 56.5442L24.5677 56.5397L24.573 56.5349L24.3702 56.3137ZM22.1402 62.5738V54.5937H21.5402V62.5738H22.1402ZM21.8402 54.8937H23.0402V54.2937H21.8402V54.8937ZM22.7983 54.7712L23.2383 55.3712L23.7222 55.0163L23.2822 54.4163L22.7983 54.7712ZM23.7284 55.3624C24.0012 54.9609 24.5324 54.7137 25.4402 54.7137V54.1137C24.4414 54.1137 23.6659 54.3866 23.2321 55.0251L23.7284 55.3624ZM25.4402 54.7137C25.8854 54.7137 26.2372 54.7942 26.5096 54.9388L26.7908 54.4087C26.4099 54.2066 25.9551 54.1137 25.4402 54.1137V54.7137ZM26.5096 54.9388C26.7951 55.0902 27.021 55.2913 27.1924 55.5428L27.6881 55.2047C27.4595 54.8695 27.1587 54.6039 26.7908 54.4087L26.5096 54.9388ZM27.1969 55.5492C27.3771 55.7992 27.5086 56.0975 27.5875 56.4494L28.173 56.3181C28.0785 55.8967 27.9167 55.5216 27.6836 55.1983L27.1969 55.5492ZM27.5886 56.4541C27.6761 56.8165 27.7202 57.1961 27.7202 57.5938H28.3202C28.3202 57.1514 28.2711 56.7243 28.1719 56.3134L27.5886 56.4541ZM27.7202 57.5938C27.7202 57.9807 27.6822 58.3421 27.6074 58.6787L28.1931 58.8088C28.2783 58.4254 28.3202 58.0201 28.3202 57.5938H27.7202ZM27.6074 58.6787C27.5346 59.006 27.4149 59.291 27.2506 59.5373L27.7498 59.8702C27.9589 59.5565 28.1058 59.2015 28.1931 58.8088L27.6074 58.6787ZM27.2525 59.5346C27.0949 59.7653 26.8864 59.9495 26.6215 60.0878L26.899 60.6197C27.2474 60.438 27.5322 60.1889 27.748 59.8729L27.2525 59.5346ZM26.6215 60.0878C26.3689 60.2196 26.0397 60.2937 25.6202 60.2937V60.8938C26.1074 60.8938 26.5383 60.8079 26.899 60.6197L26.6215 60.0878ZM25.6202 60.2937H24.2402V60.8938H25.6202V60.2937ZM23.9402 60.5938V62.3938H24.5402V60.5938H23.9402ZM24.2178 62.0946L21.8178 62.2746L21.8627 62.8729L24.2627 62.6929L24.2178 62.0946ZM23.9402 56.6137V59.0237H24.5402V56.6137H23.9402ZM24.2402 59.3238H24.6102V58.7238H24.2402V59.3238ZM24.6102 59.3238C24.9098 59.3238 25.1777 59.2953 25.3687 59.2049L25.1118 58.6626C25.0495 58.6922 24.8974 58.7238 24.6102 58.7238V59.3238ZM25.3633 59.2073C25.6548 59.0762 25.7402 58.7841 25.7402 58.5138H25.1402C25.1402 58.5965 25.1272 58.6383 25.1194 58.6548C25.116 58.6619 25.1142 58.663 25.1156 58.6616C25.1172 58.66 25.1184 58.6596 25.1171 58.6602L25.3633 59.2073ZM25.7402 58.5138V56.1637H25.1402V58.5138H25.7402ZM25.4402 55.8637H25.0702V56.4637H25.4402V55.8637ZM25.0702 55.8637C24.891 55.8637 24.7372 55.8705 24.613 55.8861L24.6874 56.4814C24.7766 56.4703 24.9028 56.4637 25.0702 56.4637V55.8637ZM24.613 55.8861C24.444 55.9072 24.2929 55.9776 24.1675 56.0926L24.573 56.5349C24.6075 56.5032 24.6432 56.487 24.6874 56.4814L24.613 55.8861ZM24.1782 56.0833C24.0168 56.2178 23.9502 56.4068 23.9406 56.5988L24.5399 56.6287C24.5418 56.5902 24.5485 56.5685 24.553 56.558C24.5569 56.549 24.56 56.5461 24.5623 56.5442L24.1782 56.0833ZM30.9789 59.9738L31.2674 59.8913L31.2052 59.6737H30.9789V59.9738ZM29.7189 59.9738L29.4278 60.0463L29.4845 60.2738H29.7189V59.9738ZM28.3789 54.5937V54.2937H27.995L28.0878 54.6663L28.3789 54.5937ZM30.7789 54.5937L31.0747 54.5437L31.0324 54.2937H30.7789V54.5937ZM31.4389 58.4938L31.1431 58.5438L31.1854 58.7937H31.4389V58.4938ZM31.5589 58.4938V58.7937H31.8124L31.8547 58.5438L31.5589 58.4938ZM32.2189 54.5937V54.2937H31.9654L31.9231 54.5437L32.2189 54.5937ZM34.6189 54.5937L34.91 54.6665L35.0031 54.2937H34.6189V54.5937ZM33.1189 60.5938L33.4085 60.6723L33.41 60.6665L33.1189 60.5938ZM32.7489 61.5638L32.4863 61.4186L32.4834 61.424L32.7489 61.5638ZM32.2789 62.1637L32.0894 61.9311L32.0844 61.9354L32.2789 62.1637ZM31.6489 62.4838L31.5761 62.1927L31.5742 62.1932L31.6489 62.4838ZM28.4989 62.5738H28.1989V62.8737H28.4989V62.5738ZM28.4989 61.0138L28.4416 60.7193L28.1989 60.7665V61.0138H28.4989ZM29.6289 60.7937L29.6863 61.0884L29.6961 61.0861L29.6289 60.7937ZM30.7589 60.3638L30.5636 60.1359L30.5601 60.1391L30.7589 60.3638ZM30.8889 60.2238L31.1289 60.4038V60.4037L30.8889 60.2238ZM30.9989 60.0437L31.2672 60.1779L31.3194 60.0735L31.2874 59.9613L30.9989 60.0437ZM30.9789 59.6737H29.7189V60.2738H30.9789V59.6737ZM30.01 59.9012L28.67 54.5212L28.0878 54.6663L29.4278 60.0463L30.01 59.9012ZM28.3789 54.8937H30.7789V54.2937H28.3789V54.8937ZM30.4831 54.6438L31.1431 58.5438L31.7347 58.4437L31.0747 54.5437L30.4831 54.6438ZM31.4389 58.7937H31.5589V58.1937H31.4389V58.7937ZM31.8547 58.5438L32.5147 54.6438L31.9231 54.5437L31.2631 58.4437L31.8547 58.5438ZM32.2189 54.8937H34.6189V54.2937H32.2189V54.8937ZM34.3279 54.521L32.8279 60.521L33.41 60.6665L34.91 54.6665L34.3279 54.521ZM32.8294 60.5152C32.7267 60.894 32.6111 61.1929 32.4863 61.4186L33.0115 61.7089C33.1667 61.4279 33.2978 61.0802 33.4084 60.6723L32.8294 60.5152ZM32.4834 61.424C32.3647 61.6497 32.2317 61.8152 32.0894 61.9312L32.4684 62.3963C32.6861 62.2189 32.8665 61.9845 33.0144 61.7035L32.4834 61.424ZM32.0844 61.9354C31.9412 62.0573 31.7734 62.1434 31.5761 62.1927L31.7217 62.7748C32.0044 62.7041 32.2566 62.5769 32.4734 62.3921L32.0844 61.9354ZM31.5742 62.1932C31.3713 62.2454 31.1241 62.2738 30.8289 62.2738V62.8737C31.1603 62.8737 31.4598 62.8421 31.7236 62.7743L31.5742 62.1932ZM30.8289 62.2738H28.4989V62.8737H30.8289V62.2738ZM28.7989 62.5738V61.0138H28.1989V62.5738H28.7989ZM28.5562 61.3082L29.6862 61.0882L29.5716 60.4993L28.4416 60.7193L28.5562 61.3082ZM29.6961 61.0861C29.9939 61.0177 30.2474 60.9449 30.4531 60.8666C30.654 60.7902 30.831 60.7005 30.9577 60.5884L30.5601 60.1391C30.5135 60.1803 30.4155 60.239 30.2397 60.3059C30.0687 60.3709 29.844 60.4365 29.5617 60.5014L29.6961 61.0861ZM30.9541 60.5915C31.0188 60.5361 31.0769 60.4731 31.1289 60.4038L30.6489 60.0437C30.6209 60.081 30.5924 60.1114 30.5637 60.136L30.9541 60.5915ZM31.1289 60.4037C31.1809 60.3344 31.2268 60.2588 31.2672 60.1779L30.7306 59.9096C30.7044 59.962 30.6769 60.0064 30.6489 60.0438L31.1289 60.4037ZM31.2874 59.9613L31.2674 59.8913L30.6904 60.0562L30.7104 60.1262L31.2874 59.9613ZM42.0572 58.0637H42.3572V57.7637H42.0572V58.0637ZM41.4472 58.0637H41.1472V58.3637H41.4472V58.0637ZM41.4472 56.2238V55.9237H41.1472V56.2238H41.4472ZM44.3372 56.2238H44.6372V55.9237H44.3372V56.2238ZM44.3372 60.2338L44.4438 60.5142L44.6372 60.4406V60.2338H44.3372ZM39.6472 60.5238L39.5437 60.8053L39.545 60.8058L39.6472 60.5238ZM38.5672 59.7837L38.3329 59.9712L38.3348 59.9735L38.5672 59.7837ZM38.0072 58.5538L37.7131 58.6134L37.7141 58.618L38.0072 58.5538ZM38.0472 55.0537L38.3378 55.1284L38.338 55.1274L38.0472 55.0537ZM38.6772 53.8337L38.8962 54.0388L38.8983 54.0365L38.6772 53.8337ZM39.8472 53.1337L39.7606 52.8465V52.8465L39.8472 53.1337ZM42.2172 52.9437L42.1892 53.2426L42.199 53.2432L42.2172 52.9437ZM42.8772 53.0137L42.8322 53.3105L42.8411 53.3116L42.8772 53.0137ZM43.4972 53.1137L43.4364 53.4078L43.4479 53.4097L43.4972 53.1137ZM43.9772 53.2237L44.2716 53.2814L44.3222 53.0225L44.0721 52.9391L43.9772 53.2237ZM43.6172 55.0637L43.5688 55.3598L43.8558 55.4067L43.9116 55.1214L43.6172 55.0637ZM42.6872 54.9437L42.6533 55.2419L42.66 55.2425L42.6872 54.9437ZM40.4372 58.8938H40.1372V59.1937H40.4372V58.8938ZM41.8572 58.8038L41.9856 59.0749L41.9914 59.0721L41.8572 58.8038ZM42.3572 58.3837V58.0637H41.7572V58.3837H42.3572ZM42.0572 57.7637H41.4472V58.3637H42.0572V57.7637ZM41.7472 58.0637V56.2238H41.1472V58.0637H41.7472ZM41.4472 56.5237H44.3372V55.9237H41.4472V56.5237ZM44.0372 56.2238V60.2338H44.6372V56.2238H44.0372ZM44.2306 59.9533C43.3182 60.3003 42.371 60.4738 41.3872 60.4738V61.0738C42.4434 61.0738 43.4628 60.8872 44.4438 60.5142L44.2306 59.9533ZM41.3872 60.4738C40.7083 60.4738 40.1658 60.3926 39.7494 60.2417L39.545 60.8058C40.0486 60.9883 40.6661 61.0738 41.3872 61.0738V60.4738ZM39.7507 60.2422C39.3403 60.0913 39.0276 59.8733 38.7996 59.594L38.3348 59.9735C38.6401 60.3475 39.0474 60.6229 39.5437 60.8053L39.7507 60.2422ZM38.8014 59.5963C38.568 59.3046 38.3987 58.9387 38.3002 58.4895L37.7141 58.618C37.829 59.1422 38.033 59.5963 38.3329 59.9712L38.8014 59.5963ZM38.3012 58.4942C38.2062 58.0252 38.1572 57.4726 38.1572 56.8337H37.5572C37.5572 57.5015 37.6082 58.0956 37.7132 58.6133L38.3012 58.4942ZM38.1572 56.8337C38.1572 56.1572 38.2191 55.5903 38.3378 55.1284L37.7566 54.9791C37.6219 55.5038 37.5572 56.1236 37.5572 56.8337H38.1572ZM38.338 55.1274C38.4547 54.6667 38.6439 54.3083 38.8962 54.0388L38.4582 53.6287C38.1238 53.9859 37.893 54.4408 37.7564 54.9801L38.338 55.1274ZM38.8983 54.0365C39.1494 53.7626 39.4898 53.5548 39.9338 53.421L39.7606 52.8465C39.2312 53.0061 38.7916 53.2649 38.456 53.631L38.8983 54.0365ZM39.9338 53.421C40.3834 53.2855 40.9554 53.2137 41.6572 53.2137V52.6137C40.919 52.6137 40.2844 52.6887 39.7606 52.8465L39.9338 53.421ZM41.6572 53.2137C41.8053 53.2137 41.9823 53.223 42.1892 53.2424L42.2452 52.6451C42.0254 52.6245 41.8291 52.6137 41.6572 52.6137V53.2137ZM42.199 53.2432C42.41 53.256 42.621 53.2784 42.8322 53.3104L42.9221 52.7171C42.6933 52.6825 42.4644 52.6582 42.2353 52.6443L42.199 53.2432ZM42.8411 53.3116C43.0538 53.3374 43.2522 53.3694 43.4364 53.4075L43.558 52.82C43.3556 52.7781 43.1406 52.7435 42.9133 52.7159L42.8411 53.3116ZM43.4479 53.4097C43.6404 53.4418 43.7833 53.4753 43.8823 53.5084L44.0721 52.9391C43.9311 52.8922 43.7539 52.8524 43.5465 52.8178L43.4479 53.4097ZM43.6828 53.1661L43.3228 55.0061L43.9116 55.1214L44.2716 53.2814L43.6828 53.1661ZM43.6655 54.7677C43.3327 54.7133 43.0156 54.6724 42.7143 54.645L42.66 55.2425C42.9455 55.2685 43.2484 55.3075 43.5688 55.3598L43.6655 54.7677ZM42.7211 54.6457C42.4183 54.6113 42.1335 54.5937 41.8672 54.5937V55.1937C42.1075 55.1937 42.3694 55.2096 42.6533 55.2418L42.7211 54.6457ZM41.8672 54.5937C41.3394 54.5937 40.9207 54.632 40.6519 54.7329L40.8625 55.2946C41.0203 55.2355 41.3416 55.1937 41.8672 55.1937V54.5937ZM40.6519 54.7329C40.4975 54.7907 40.3619 54.8859 40.2676 55.0273C40.1741 55.1676 40.1372 55.3292 40.1372 55.4937H40.7372C40.7372 55.4183 40.7536 55.3799 40.7668 55.3602C40.7791 55.3416 40.8036 55.3168 40.8625 55.2946L40.6519 54.7329ZM40.1372 55.4937V58.8938H40.7372V55.4937H40.1372ZM40.4372 59.1937H41.2272V58.5938H40.4372V59.1937ZM41.2272 59.1937C41.5267 59.1937 41.7946 59.1653 41.9856 59.0749L41.7288 58.5326C41.6664 58.5622 41.5143 58.5938 41.2272 58.5938V59.1937ZM41.9914 59.0721C42.2681 58.9337 42.3572 58.655 42.3572 58.3837H41.7572C41.7572 58.4616 41.7447 58.5022 41.7363 58.5198C41.7305 58.532 41.7273 58.5333 41.723 58.5354L41.9914 59.0721ZM45.9245 55.2037L46.1407 55.4117L46.142 55.4103L45.9245 55.2037ZM50.7845 55.2037L50.5669 55.4103L50.5682 55.4117L50.7845 55.2037ZM50.7845 59.9937L51.0007 60.2017L51.002 60.2003L50.7845 59.9937ZM45.9445 60.0037L45.7323 60.2159L45.9445 60.0037ZM47.7545 59.0237H47.4545V59.3238H47.7545V59.0237ZM48.7545 58.9338L48.6313 58.6601L48.626 58.6626L48.7545 58.9338ZM48.9545 56.1637H49.2545V55.8637H48.9545V56.1637ZM47.9445 56.2537L47.8213 55.9801L47.816 55.9826L47.9445 56.2537ZM45.4745 57.5938C45.4745 56.5607 45.7157 55.8537 46.1407 55.4117L45.7082 54.9958C45.1332 55.5938 44.8745 56.4802 44.8745 57.5938H45.4745ZM46.142 55.4103C46.5609 54.969 47.2728 54.7137 48.3545 54.7137V54.1137C47.1961 54.1137 46.288 54.3851 45.7069 54.9972L46.142 55.4103ZM48.3545 54.7137C49.4361 54.7137 50.148 54.969 50.5669 55.4103L51.002 54.9972C50.4209 54.3851 49.5128 54.1137 48.3545 54.1137V54.7137ZM50.5682 55.4117C50.9932 55.8537 51.2345 56.5607 51.2345 57.5938H51.8345C51.8345 56.4802 51.5757 55.5938 51.0007 54.9958L50.5682 55.4117ZM51.2345 57.5938C51.2345 58.6265 50.9934 59.3379 50.5669 59.7872L51.002 60.2003C51.5755 59.5962 51.8345 58.7077 51.8345 57.5938H51.2345ZM50.5682 59.7858C50.1494 60.2213 49.4371 60.4738 48.3545 60.4738V61.0738C49.5119 61.0738 50.4195 60.8062 51.0007 60.2017L50.5682 59.7858ZM48.3545 60.4738C47.301 60.4738 46.5907 60.2257 46.1566 59.7916L45.7323 60.2159C46.3249 60.8084 47.2213 61.0738 48.3545 61.0738V60.4738ZM46.1566 59.7916C45.7225 59.3575 45.4745 58.6472 45.4745 57.5938H44.8745C44.8745 58.7269 45.1398 59.6233 45.7323 60.2159L46.1566 59.7916ZM47.4545 56.6737V59.0237H48.0545V56.6737H47.4545ZM47.7545 59.3238H48.1245V58.7238H47.7545V59.3238ZM48.1245 59.3238C48.424 59.3238 48.6919 59.2953 48.8829 59.2049L48.626 58.6626C48.5637 58.6922 48.4116 58.7238 48.1245 58.7238V59.3238ZM48.8776 59.2073C49.169 59.0762 49.2545 58.7841 49.2545 58.5138H48.6545C48.6545 58.5965 48.6414 58.6383 48.6336 58.6548C48.6302 58.6619 48.6284 58.663 48.6298 58.6616C48.6314 58.66 48.6327 58.6596 48.6313 58.6602L48.8776 59.2073ZM49.2545 58.5138V56.1637H48.6545V58.5138H49.2545ZM48.9545 55.8637H48.5845V56.4637H48.9545V55.8637ZM48.5845 55.8637C48.2829 55.8637 48.0156 55.8927 47.8213 55.9802L48.0676 56.5273C48.1399 56.4948 48.2993 56.4637 48.5845 56.4637V55.8637ZM47.816 55.9826C47.5317 56.1173 47.4545 56.4108 47.4545 56.6737H48.0545C48.0545 56.5893 48.0671 56.5455 48.0753 56.5274C48.0788 56.5195 48.0807 56.5184 48.0788 56.5204C48.0767 56.5226 48.0741 56.5243 48.0729 56.5249L47.816 55.9826ZM58.2145 60.5938V60.8938H58.5145V60.5938H58.2145ZM57.0145 60.5938L56.8024 60.8059L56.8903 60.8938H57.0145V60.5938ZM56.3345 59.9137L56.5467 59.7016L56.3231 59.478L56.1115 59.7131L56.3345 59.9137ZM55.9045 60.2738L55.7428 60.021L55.7381 60.0241L55.9045 60.2738ZM54.8145 60.7137L54.8753 61.0075L54.8145 60.7137ZM53.3345 60.6637L53.4123 60.374L53.4073 60.3727L53.3345 60.6637ZM52.6545 60.3337L52.845 60.1019L52.6545 60.3337ZM52.2245 59.7238L52.5036 59.6136L52.2245 59.7238ZM55.8145 56.6337V56.9337H56.1145V56.6337H55.8145ZM55.8145 56.2037H56.1145V55.9191L55.8303 55.9042L55.8145 56.2037ZM55.4645 56.1837L55.4446 56.4831L55.4458 56.4832L55.4645 56.1837ZM52.8545 56.5037L52.5587 56.5536L52.6171 56.9002L52.9503 56.7881L52.8545 56.5037ZM52.5645 54.7837L52.4761 54.4971L52.225 54.5745L52.2687 54.8336L52.5645 54.7837ZM54.4945 59.0237H54.1945V59.3238H54.4945V59.0237ZM55.6745 58.9037L55.8545 59.1437L55.8671 59.1343L55.8787 59.1236L55.6745 58.9037ZM55.8145 58.0237H56.1145V57.7238H55.8145V58.0237ZM54.6945 58.1137L54.5714 57.8402V57.8402L54.6945 58.1137ZM55.3345 54.7137C56.2695 54.7137 56.9175 54.8761 57.3246 55.156C57.7113 55.4219 57.9145 55.8173 57.9145 56.3937H58.5145C58.5145 55.6502 58.2377 55.0556 57.6645 54.6615C57.1115 54.2814 56.3196 54.1137 55.3345 54.1137V54.7137ZM57.9145 56.3937V60.5938H58.5145V56.3937H57.9145ZM58.2145 60.2937H57.0145V60.8938H58.2145V60.2937ZM57.2267 60.3816L56.5467 59.7016L56.1224 60.1259L56.8024 60.8059L57.2267 60.3816ZM56.1115 59.7131C56.0113 59.8245 55.8891 59.9274 55.7428 60.0211L56.0662 60.5264C56.2533 60.4067 56.4178 60.2697 56.5575 60.1144L56.1115 59.7131ZM55.7381 60.0241C55.5967 60.1184 55.4424 60.1987 55.2748 60.2645L55.4942 60.823C55.6999 60.7422 55.8924 60.6424 56.0709 60.5234L55.7381 60.0241ZM55.2748 60.2645C55.1038 60.3317 54.9301 60.3835 54.7537 60.42L54.8753 61.0075C55.0856 60.964 55.292 60.9024 55.4942 60.823L55.2748 60.2645ZM54.7537 60.42C54.5785 60.4562 54.4123 60.4738 54.2545 60.4738V61.0738C54.4568 61.0738 54.6639 61.0513 54.8753 61.0075L54.7537 60.42ZM54.2545 60.4738C53.9357 60.4738 53.6558 60.4393 53.4123 60.374L53.2568 60.9535C53.56 61.0348 53.8934 61.0738 54.2545 61.0738V60.4738ZM53.4073 60.3727C53.1778 60.3153 52.9928 60.2234 52.845 60.1019L52.4641 60.5656C52.6896 60.7508 52.9579 60.8788 53.2618 60.9548L53.4073 60.3727ZM52.845 60.1019C52.7025 59.9849 52.5873 59.8257 52.5036 59.6136L51.9455 59.8339C52.0618 60.1285 52.2332 60.3759 52.4641 60.5656L52.845 60.1019ZM52.5036 59.6136C52.4213 59.4052 52.3745 59.135 52.3745 58.7937H51.7745C51.7745 59.1859 51.8278 59.5356 51.9455 59.8339L52.5036 59.6136ZM52.3745 58.7937C52.3745 58.1619 52.6056 57.7217 53.0552 57.4238C53.5265 57.1116 54.2715 56.9337 55.3345 56.9337V56.3337C54.2242 56.3337 53.3392 56.5159 52.7238 56.9237C52.0868 57.3458 51.7745 57.9856 51.7745 58.7937H52.3745ZM55.3345 56.9337H55.8145V56.3337H55.3345V56.9337ZM56.1145 56.6337V56.2037H55.5145V56.6337H56.1145ZM55.8303 55.9042C55.7044 55.8975 55.5888 55.8909 55.4832 55.8843L55.4458 56.4832C55.5536 56.4899 55.6713 56.4966 55.7988 56.5033L55.8303 55.9042ZM55.4845 55.8844C55.3788 55.8774 55.2788 55.8737 55.1845 55.8737V56.4737C55.2636 56.4737 55.3502 56.4768 55.4446 56.4831L55.4845 55.8844ZM55.1845 55.8737C54.2614 55.8737 53.4508 55.9864 52.7588 56.2194L52.9503 56.7881C53.565 56.5811 54.3077 56.4737 55.1845 56.4737V55.8737ZM53.1504 56.4539L52.8604 54.7339L52.2687 54.8336L52.5587 56.5536L53.1504 56.4539ZM52.6529 55.0704C53.4182 54.8345 54.3107 54.7137 55.3345 54.7137V54.1137C54.2651 54.1137 53.3109 54.2397 52.4761 54.4971L52.6529 55.0704ZM54.1945 58.5338V59.0237H54.7945V58.5338H54.1945ZM54.4945 59.3238H54.9945V58.7238H54.4945V59.3238ZM54.9945 59.3238C55.1775 59.3238 55.3398 59.3133 55.4767 59.2892C55.6073 59.2661 55.7454 59.2256 55.8545 59.1437L55.4945 58.6637C55.497 58.6619 55.4685 58.6814 55.3724 58.6983C55.2826 58.7142 55.1582 58.7238 54.9945 58.7238V59.3238ZM55.8787 59.1236C56.0289 58.9841 56.1145 58.8028 56.1145 58.5938H55.5145C55.5145 58.6247 55.5068 58.6501 55.4704 58.6839L55.8787 59.1236ZM56.1145 58.5938V58.0237H55.5145V58.5938H56.1145ZM55.8145 57.7238H55.3245V58.3238H55.8145V57.7238ZM55.3245 57.7238C55.0285 57.7238 54.7652 57.753 54.5714 57.8402L54.8176 58.3873C54.8905 58.3545 55.0473 58.3238 55.3245 58.3238V57.7238ZM54.5714 57.8402C54.2799 57.9713 54.1945 58.2634 54.1945 58.5338H54.7945C54.7945 58.451 54.8075 58.4092 54.8154 58.3927C54.8188 58.3856 54.8206 58.3845 54.8192 58.3859C54.8176 58.3875 54.8163 58.3879 54.8176 58.3873L54.5714 57.8402ZM59.5314 56.1437H59.8314V55.8438H59.5314V56.1437ZM58.9314 56.1437H58.6314V56.4437H58.9314V56.1437ZM58.9314 54.5937V54.2937H58.6314V54.5937H58.9314ZM59.5314 54.5937V54.8937H59.8314V54.5937H59.5314ZM59.5314 53.6337L59.4586 53.3427L59.2314 53.3995V53.6337H59.5314ZM61.9314 53.0337H62.2314V52.6495L61.8586 52.7427L61.9314 53.0337ZM61.9314 54.5937H61.6314V54.8937H61.9314V54.5937ZM62.7614 54.5937H63.0614V54.2937H62.7614V54.5937ZM62.7614 56.1437V56.4437H63.0614V56.1437H62.7614ZM61.9314 56.1437V55.8438H61.6314V56.1437H61.9314ZM61.9314 58.8737H61.6314V59.1197L61.8726 59.1679L61.9314 58.8737ZM62.2614 58.9338L62.2121 59.2297L62.2201 59.231L62.2283 59.2319L62.2614 58.9338ZM62.6414 58.9637L62.9408 58.9825L62.9598 58.6793L62.6564 58.6641L62.6414 58.9637ZM62.5314 60.7238V61.0238H62.8132L62.8308 60.7425L62.5314 60.7238ZM60.3914 60.5437L60.493 60.2615L60.4923 60.2612L60.3914 60.5437ZM59.7514 60.1637L59.5302 60.3665L59.5346 60.3711L59.7514 60.1637ZM59.5314 55.8438H58.9314V56.4437H59.5314V55.8438ZM59.2314 56.1437V54.5937H58.6314V56.1437H59.2314ZM58.9314 54.8937H59.5314V54.2937H58.9314V54.8937ZM59.8314 54.5937V53.6337H59.2314V54.5937H59.8314ZM59.6042 53.9248L62.0042 53.3248L61.8586 52.7427L59.4586 53.3427L59.6042 53.9248ZM61.6314 53.0337V54.5937H62.2314V53.0337H61.6314ZM61.9314 54.8937H62.7614V54.2937H61.9314V54.8937ZM62.4614 54.5937V56.1437H63.0614V54.5937H62.4614ZM62.7614 55.8438H61.9314V56.4437H62.7614V55.8438ZM61.6314 56.1437V58.8737H62.2314V56.1437H61.6314ZM61.8726 59.1679C61.9763 59.1887 62.0895 59.2092 62.2121 59.2297L62.3107 58.6378C62.1933 58.6183 62.0865 58.5988 61.9902 58.5796L61.8726 59.1679ZM62.2283 59.2319C62.3549 59.246 62.4877 59.2564 62.6264 59.2634L62.6564 58.6641C62.5285 58.6577 62.4079 58.6482 62.2945 58.6356L62.2283 59.2319ZM62.342 58.945L62.232 60.705L62.8308 60.7425L62.9408 58.9825L62.342 58.945ZM62.5314 60.4237C61.9893 60.4237 61.5467 60.4088 61.2015 60.3798C60.8501 60.3502 60.621 60.3076 60.493 60.2615L60.2898 60.826C60.4951 60.8999 60.7894 60.9473 61.1513 60.9777C61.5194 61.0087 61.9802 61.0238 62.5314 61.0238V60.4237ZM60.4923 60.2612C60.2397 60.171 60.0723 60.0652 59.9682 59.9564L59.5346 60.3711C59.7238 60.5689 59.9831 60.7165 60.2905 60.8263L60.4923 60.2612ZM59.9726 59.961C59.8942 59.8756 59.8314 59.7263 59.8314 59.4637H59.2314C59.2314 59.8145 59.3153 60.1319 59.5303 60.3665L59.9726 59.961ZM59.8314 59.4637V56.1437H59.2314V59.4637H59.8314Z" fill="black" mask="url(#path-1-inside-1_912_2088)"/>
<path d="M23.4463 0.828258C29.803 -0.231189 35.1095 1.26969 36.9682 2.15257C30.3885 3.60236 24.9333 10.9813 23.0281 14.4895C21.0207 15.1029 19.1249 16.8826 18.4279 17.6957L16.3369 20.2747L13.5488 22.993C12.0991 24.3312 12.666 25.3628 13.1306 25.7113V27.7326L14.9429 29.1963H15.9884C24.4082 29.029 25.5838 32.3328 25.1191 34.0056C23.1675 39.8047 15.6631 43.0202 12.1548 43.9031C7.86129 40.5017 5.48683 35.0512 4.8363 32.751C1.49068 23.8851 5.20804 14.9774 7.48492 11.6318C12.113 4.43871 20.0542 1.43232 23.4463 0.828258Z" fill="#FF7D01"/>
<path d="M32.4377 7.93768C37.7907 2.02708 45.1696 2.91924 48.19 4.10415C44.2867 3.88111 42.521 4.52235 42.126 4.87086C53.5011 12.6215 53.6963 25.0608 52.372 30.3115C48.9706 43.2479 39.9421 47.7831 35.853 48.4336C39.0871 39.4562 35.8995 30.5206 33.9014 27.175C32.7304 22.7699 30.8578 19.113 30.0679 17.8351C31.6291 17.5006 33.6458 16.1159 34.459 15.4653L34.6681 15.1865L27.9071 14.9774C27.4192 15.9765 26.7222 17.3612 27.8374 14.9077C28.9526 12.4543 31.3689 9.23875 32.4377 7.93768Z" fill="#FF7D01"/>
<path d="M23.4463 0.828258C29.803 -0.231189 35.1095 1.26969 36.9682 2.15257C30.3885 3.60236 24.9333 10.9813 23.0281 14.4895C21.0207 15.1029 19.1249 16.8826 18.4279 17.6957L16.3369 20.2747L13.5488 22.993C12.0991 24.3312 12.666 25.3628 13.1306 25.7113V27.7326L14.9429 29.1963H15.9884C24.4082 29.029 25.5838 32.3328 25.1191 34.0056C23.1675 39.8047 15.6631 43.0202 12.1548 43.9031C7.86129 40.5017 5.48683 35.0512 4.8363 32.751C1.49068 23.8851 5.20804 14.9774 7.48492 11.6318C12.113 4.43871 20.0542 1.43232 23.4463 0.828258Z" fill="white"/>
</svg>
