<svg width="29" height="29" viewBox="0 0 29 29" fill="none" xmlns="http://www.w3.org/2000/svg">
<circle cx="14.0789" cy="14.0789" r="13.6096" stroke="white" stroke-width="0.938596"/>
<path d="M22 9.54204C21.4116 9.80262 20.7795 9.97869 20.115 10.0583C20.8007 9.64824 21.3136 9.00289 21.5582 8.24264C20.914 8.62506 20.209 8.89424 19.4738 9.03848C18.9794 8.51087 18.3245 8.16117 17.6109 8.04366C16.8973 7.92615 16.1648 8.04741 15.5272 8.3886C14.8895 8.7298 14.3825 9.27185 14.0847 9.93059C13.7869 10.5893 13.715 11.3279 13.8802 12.0317C12.575 11.9662 11.2981 11.6271 10.1324 11.0365C8.96677 10.4458 7.93841 9.6168 7.11407 8.60323C6.8322 9.08918 6.67013 9.65261 6.67013 10.2527C6.66982 10.7928 6.80291 11.3247 7.05761 11.8012C7.3123 12.2776 7.68073 12.6839 8.13019 12.9839C7.60893 12.9673 7.09918 12.8265 6.64335 12.5733V12.6155C6.6433 13.3731 6.90551 14.1075 7.38549 14.6939C7.86547 15.2803 8.53365 15.6826 9.27667 15.8327C8.79312 15.9635 8.28615 15.9827 7.79406 15.889C8.0037 16.5409 8.41205 17.111 8.96194 17.5194C9.51184 17.9278 10.1758 18.1541 10.8607 18.1667C9.69794 19.079 8.26188 19.5739 6.78358 19.5717C6.52172 19.5718 6.26007 19.5565 6 19.5259C7.50056 20.4902 9.24731 21.002 11.0313 21C17.0702 21 20.3715 16.001 20.3715 11.6654C20.3715 11.5246 20.368 11.3823 20.3617 11.2415C21.0038 10.7773 21.5581 10.2026 21.9986 9.54415L22 9.54204V9.54204Z" fill="white"/>
</svg>
